<svg xmlns="http://www.w3.org/2000/svg" width="163" height="132" viewBox="0 0 163 132">
    <g fill="none" fill-rule="evenodd">
        <g fill-rule="nonzero">
            <g transform="translate(-93 -328) translate(93 328)">
                <path fill="#103344" d="M32.304 34.86c4.152 3.72 17.088-2.976 17.82-9.264.552-4.524-6.528-12.588-14.844-4.632 0 0-8.352 9.036-2.976 13.896zM25.848 43.692c1.2-.9 3.156-4.128-1.848-5.088 0 0-3.84-.96-3.708 3.504.132 4.464 4.32 2.472 5.556 1.584zM35.16 127.44h-.084.084zM156.36 37.032C144.276 2.688 116.652-5.916 94.32 5.748c-12.72 6.648-27.3 16.56-41.052 26.028-9.343 6.254-19.198 11.705-29.46 16.296-3.726 1.658-7.184 3.863-10.26 6.54-8.4 7.368-19.368 22.464-7.2 45.12C7.2 96 8.148 89.148 8.4 87.6c.97-10.276 9.587-18.134 19.908-18.156h.912c1.728-1.2 2.604-2.532 2.748-1.344.038.551-.074 1.103-.324 1.596 9.652 1.63 16.711 10 16.692 19.788l-1.356 21.132c0 3.216 0 6.6.096 9.792v2.004c1.196-2.713 2.663-5.298 4.38-7.716 2.832-3.504 3.156-8.472 2.928-12.108l-.672-4.728-1.824-12.36c-.06-.696-.084-1.416-.084-2.1.013-13.935 10.732-25.521 24.624-26.616h.204c2.472-.816 6.288-2.268 8.088-3.912 2.004-1.848 1.98 1.524-.624 4.428 11.546 2.474 20.102 12.23 21.048 24l.312 22.548c.84 8.712 3.024 21.768 2.688 28.044v.252c1.144-3.024 2.134-6.104 2.964-9.228.482-2.627.611-5.307.384-7.968L107.58 92.76c-.083-.797-.123-1.598-.12-2.4.014-10.848 8.178-19.952 18.96-21.144.468 0 .936 0 1.404-.084-1.548-.936-1.524-2.532-1.02-2.724.936-.207 1.9.202 2.4 1.02-.156-1.716.9-2.892 1.38-2.532 1.436.977 1.92 2.87 1.128 4.416 9.65 1.35 17.15 9.082 18.204 18.768l.564 12.228c.444 2.1 1.128 4.8 1.908 7.656 12.816-20.94 12.084-47.856 3.972-70.932z"/>
                <ellipse cx="19.5" cy="86.028" fill="#103344" rx="7.368" ry="7.752"/>
                <path fill="#BF9E24" d="M24.096 95.268c.239-1.077 1.2-1.839 2.304-1.824.72.044 1.285.635 1.296 1.356.408 2.124-2.472 5.76-3.228 5.448-.756-.312-.444-4.56-.444-4.56s-.024-.204.072-.42z"/>
                <ellipse cx="35.832" cy="90.132" fill="#103344" rx="7.128" ry="7.5"/>
                <circle cx="19.5" cy="85.632" r="6.576" fill="#FEC52E"/>
                <circle cx="35.988" cy="89.76" r="6.36" fill="#FEC52E"/>
                <circle cx="19.188" cy="85.488" r="1.104" fill="#103344"/>
                <circle cx="35.988" cy="89.796" r="1.236" fill="#103344"/>
                <ellipse cx="67.224" cy="83.136" fill="#103344" rx="9.372" ry="9.84"/>
                <circle cx="67.224" cy="82.668" r="8.352" fill="#FEC52E"/>
                <circle cx="67.224" cy="82.668" r="1.62" fill="#103344"/>
                <ellipse cx="91.428" cy="79.944" fill="#103344" rx="9.372" ry="9.84"/>
                <circle cx="91.428" cy="79.476" r="8.352" fill="#FEC52E"/>
                <circle cx="91.428" cy="79.476" r="1.62" fill="#103344"/>
                <ellipse cx="118.176" cy="89.208" fill="#103344" rx="7.56" ry="7.944"/>
                <ellipse cx="135.18" cy="85.668" fill="#103344" rx="7.536" ry="7.932"/>
                <circle cx="118.176" cy="88.824" r="6.696" fill="#FEC52E"/>
                <circle cx="118.176" cy="88.824" r="1.14" fill="#103344"/>
                <circle cx="135.348" cy="85.272" r="6.684" fill="#FEC52E"/>
                <circle cx="135.324" cy="85.272" r="1.14" fill="#103344"/>
                <path fill="#FFF" d="M98.544 25.2c-2.884 1.853-6.673 1.416-9.06-1.044.168.422.382.824.636 1.2 1.233 2.48 3.779 4.034 6.548 3.995 2.77-.038 5.271-1.662 6.434-4.176 1.163-2.513.781-5.471-.982-7.607-.25-.392-.54-.758-.864-1.092 1.293 3.183.157 6.835-2.712 8.724z"/>
                <path fill="#FEC52E" d="M24.684 95.112c.23-1.024 1.186-1.718 2.232-1.62.652.065 1.181.555 1.296 1.2.468 1.968-2.256 5.232-3.012 4.92-.756-.312-.588-4.212-.588-4.212l.072-.288z"/>
                <path fill="#BF9E24" d="M78.24 93.468c-.493-1.305.124-2.768 1.404-3.324.82-.442 1.827-.332 2.532.276 2.112 1.644 1.428 7.02.276 7.272-1.152.252-4.032-3.84-4.032-3.84-.068-.124-.129-.252-.18-.384z"/>
                <path fill="#FEC52E" d="M79.548 93.216c-.478-1.133-.022-2.444 1.056-3.036.679-.379 1.528-.25 2.064.312 1.776 1.572 1.344 6.516.408 6.72-.936.204-3.384-3.6-3.384-3.6s-.06-.18-.144-.396zM126.396 94.692s1.5-1.92 2.868-.444c1.368 1.476.612 5.676-.204 5.772-.816.096-2.58-3.384-2.58-3.384-.259-.617-.289-1.307-.084-1.944z"/>
                <path fill="#BF9E24" d="M125.508 96.324c-.204-1.082.428-2.146 1.476-2.484.712-.31 1.542-.13 2.064.444 1.632 1.572.648 6.06-.324 6.18-.972.12-3.036-3.6-3.036-3.6-.07-.176-.131-.357-.18-.54z"/>
                <path fill="#FEC52E" d="M126.396 94.692s1.5-1.92 2.868-.444c1.368 1.476.612 5.676-.204 5.772-.816.096-2.58-3.384-2.58-3.384-.259-.617-.289-1.307-.084-1.944z"/>
                <path fill="#FFF" d="M137.292 28.008c-.006-.159-.13-.288-.288-.3-1.095-.006-1.984-.885-2.004-1.98.003-.078-.026-.155-.08-.211-.054-.057-.13-.09-.208-.089-.16 0-.288.129-.288.288-.013 1.1-.905 1.986-2.004 1.992-.147.018-.26.14-.264.288.004.15.115.277.264.3 1.092.026 1.967.912 1.98 2.004 0 .16.129.288.288.288.075 0 .147-.03.2-.085.052-.054.08-.128.076-.203v-.096c.063-1.062.94-1.892 2.004-1.896.083.003.163-.027.224-.083.061-.056.097-.134.1-.217zM114.372 49.392c0-.121-.095-.222-.216-.228-.841-.006-1.523-.683-1.536-1.524-.024-.103-.116-.176-.222-.176s-.198.073-.222.176c.01.412-.148.811-.438 1.105-.29.294-.685.458-1.098.455-.11.022-.189.117-.192.228-.001.113.08.21.192.228.85 0 1.541.686 1.548 1.536.006.123.105.222.228.228.057-.003.111-.029.15-.072.038-.042.057-.099.054-.156v-.072c.05-.813.722-1.447 1.536-1.452.068-.002.131-.034.173-.087.041-.054.057-.123.043-.189zM53.748 46.116c0-.126-.102-.228-.228-.228-.879 0-1.595-.705-1.608-1.584 0-.126-.102-.228-.228-.228-.061-.004-.122.02-.165.063-.044.043-.067.104-.063.165-.007.883-.725 1.596-1.608 1.596-.116.012-.205.11-.204.228-.001.12.086.222.204.24.432 0 .846.172 1.15.479.304.306.473.721.47 1.153 0 .126.102.228.228.228s.228-.102.228-.228v-.12c.044-.85.744-1.519 1.596-1.524.063 0 .122-.026.166-.071.043-.045.065-.106.062-.169z"/>
            </g>
        </g>
    </g>
</svg>
